<mxfile host="app.diagrams.net" agent="Mozilla/5.0 (Windows NT 10.0; Win64; x64) AppleWebKit/537.36 (KHTML, like Gecko) Chrome/132.0.0.0 Safari/537.36" version="26.0.15">
  <diagram name="페이지-1" id="OojCJ-NxABlNjN9EmS9N">
    <mxGraphModel dx="1434" dy="772" grid="1" gridSize="10" guides="1" tooltips="1" connect="1" arrows="1" fold="1" page="1" pageScale="1" pageWidth="827" pageHeight="1169" math="0" shadow="0">
      <root>
        <mxCell id="0" />
        <mxCell id="1" parent="0" />
        <mxCell id="MiUpOEpiSfRBBSRzu3QC-1" value="server 0" style="rounded=1;whiteSpace=wrap;html=1;" vertex="1" parent="1">
          <mxGeometry x="210" y="172" width="100" height="100" as="geometry" />
        </mxCell>
        <mxCell id="MiUpOEpiSfRBBSRzu3QC-2" value="server 1" style="rounded=1;whiteSpace=wrap;html=1;" vertex="1" parent="1">
          <mxGeometry x="350" y="172" width="100" height="100" as="geometry" />
        </mxCell>
        <mxCell id="MiUpOEpiSfRBBSRzu3QC-3" value="server 2" style="rounded=1;whiteSpace=wrap;html=1;" vertex="1" parent="1">
          <mxGeometry x="490" y="172" width="100" height="100" as="geometry" />
        </mxCell>
        <mxCell id="MiUpOEpiSfRBBSRzu3QC-4" value="server 3" style="rounded=1;whiteSpace=wrap;html=1;" vertex="1" parent="1">
          <mxGeometry x="630" y="172" width="100" height="100" as="geometry" />
        </mxCell>
        <mxCell id="MiUpOEpiSfRBBSRzu3QC-5" value="0" style="text;html=1;align=center;verticalAlign=middle;resizable=0;points=[];autosize=1;strokeColor=none;fillColor=none;" vertex="1" parent="1">
          <mxGeometry x="245" y="110" width="30" height="30" as="geometry" />
        </mxCell>
        <mxCell id="MiUpOEpiSfRBBSRzu3QC-6" value="1" style="text;html=1;align=center;verticalAlign=middle;resizable=0;points=[];autosize=1;strokeColor=none;fillColor=none;" vertex="1" parent="1">
          <mxGeometry x="385" y="110" width="30" height="30" as="geometry" />
        </mxCell>
        <mxCell id="MiUpOEpiSfRBBSRzu3QC-7" value="2" style="text;html=1;align=center;verticalAlign=middle;resizable=0;points=[];autosize=1;strokeColor=none;fillColor=none;" vertex="1" parent="1">
          <mxGeometry x="525" y="110" width="30" height="30" as="geometry" />
        </mxCell>
        <mxCell id="MiUpOEpiSfRBBSRzu3QC-8" value="3" style="text;html=1;align=center;verticalAlign=middle;resizable=0;points=[];autosize=1;strokeColor=none;fillColor=none;" vertex="1" parent="1">
          <mxGeometry x="665" y="110" width="30" height="30" as="geometry" />
        </mxCell>
        <mxCell id="MiUpOEpiSfRBBSRzu3QC-9" value="서버 인덱스" style="text;html=1;align=center;verticalAlign=middle;resizable=0;points=[];autosize=1;strokeColor=none;fillColor=none;" vertex="1" parent="1">
          <mxGeometry x="80" y="110" width="90" height="30" as="geometry" />
        </mxCell>
        <mxCell id="MiUpOEpiSfRBBSRzu3QC-10" value="서버" style="text;html=1;align=center;verticalAlign=middle;resizable=0;points=[];autosize=1;strokeColor=none;fillColor=none;" vertex="1" parent="1">
          <mxGeometry x="120" y="207" width="50" height="30" as="geometry" />
        </mxCell>
        <mxCell id="MiUpOEpiSfRBBSRzu3QC-11" value="키" style="text;html=1;align=center;verticalAlign=middle;resizable=0;points=[];autosize=1;strokeColor=none;fillColor=none;" vertex="1" parent="1">
          <mxGeometry x="120" y="308" width="40" height="30" as="geometry" />
        </mxCell>
        <mxCell id="MiUpOEpiSfRBBSRzu3QC-12" value="key1&lt;br&gt;key3" style="text;html=1;align=center;verticalAlign=middle;resizable=0;points=[];autosize=1;strokeColor=none;fillColor=none;" vertex="1" parent="1">
          <mxGeometry x="235" y="298" width="50" height="40" as="geometry" />
        </mxCell>
        <mxCell id="MiUpOEpiSfRBBSRzu3QC-13" value="key0&lt;br&gt;key4" style="text;html=1;align=center;verticalAlign=middle;resizable=0;points=[];autosize=1;strokeColor=none;fillColor=none;" vertex="1" parent="1">
          <mxGeometry x="375" y="298" width="50" height="40" as="geometry" />
        </mxCell>
        <mxCell id="MiUpOEpiSfRBBSRzu3QC-14" value="key6&lt;br&gt;key7" style="text;html=1;align=center;verticalAlign=middle;resizable=0;points=[];autosize=1;strokeColor=none;fillColor=none;" vertex="1" parent="1">
          <mxGeometry x="515" y="298" width="50" height="40" as="geometry" />
        </mxCell>
        <mxCell id="MiUpOEpiSfRBBSRzu3QC-15" value="key2&lt;br&gt;key5" style="text;html=1;align=center;verticalAlign=middle;resizable=0;points=[];autosize=1;strokeColor=none;fillColor=none;" vertex="1" parent="1">
          <mxGeometry x="655" y="298" width="50" height="40" as="geometry" />
        </mxCell>
        <mxCell id="MiUpOEpiSfRBBSRzu3QC-16" value="serverIndex=hash % 4" style="text;html=1;align=center;verticalAlign=middle;resizable=0;points=[];autosize=1;strokeColor=none;fillColor=none;" vertex="1" parent="1">
          <mxGeometry x="339" y="30" width="140" height="30" as="geometry" />
        </mxCell>
      </root>
    </mxGraphModel>
  </diagram>
</mxfile>
